<?xml version="1.0" encoding="utf-8"?>
<!-- Generator: Adobe Illustrator 26.5.0, SVG Export Plug-In . SVG Version: 6.00 Build 0)  -->
<svg version="1.1" id="レイヤー_1" xmlns="http://www.w3.org/2000/svg" xmlns:xlink="http://www.w3.org/1999/xlink" x="0px"
	 y="0px" viewBox="0 0 120 120" style="enable-background:new 0 0 120 120;" xml:space="preserve">
<style type="text/css">
	.st0{fill:#928157;}
</style>
<path class="st0" d="M118.33,52.98c-0.04-0.04-0.08-0.07-0.13-0.1l-3.4-1.97c-0.35-0.2-0.81,0-0.85,0.36
	c-0.19,1.9-1.02,5.38-1.83,6.03l-55.67,45.07c-2.09,1.71-5.34,1.59-7.28-0.25c-0.02-0.02-0.05-0.04-0.08-0.06L8.45,78.46
	c-0.05-0.03-5.04-4-0.53-8.66l2.83-3.08l38.69,22.37c1.93,1.87,5.21,2,7.32,0.28l58.09-47.19c2.11-1.72,2.25-4.63,0.32-6.5
	l-43.59-25.2c-1.93-1.87-5.21-2-7.32-0.28L6.17,57.39c-0.28,0.23-0.52,0.48-0.73,0.75c-5.52,4.52-7.8,20.52-0.24,26.13
	c0.03,0.02,0.05,0.04,0.08,0.06l43.5,25.15c0.03,0.02,0.06,0.04,0.08,0.06c1.94,1.84,5.19,1.95,7.28,0.25l61.83-50.37
	C120.05,57.72,120.21,54.86,118.33,52.98z"/>
</svg>
