<?xml version="1.0" encoding="utf-8"?>
<!-- Generator: Adobe Illustrator 26.5.0, SVG Export Plug-In . SVG Version: 6.00 Build 0)  -->
<svg version="1.1" id="レイヤー_1" xmlns="http://www.w3.org/2000/svg" xmlns:xlink="http://www.w3.org/1999/xlink" x="0px"
	 y="0px" viewBox="0 0 120 120" style="enable-background:new 0 0 120 120;" xml:space="preserve">
<style type="text/css">
	.st0{fill-rule:evenodd;clip-rule:evenodd;fill:#928157;}
</style>
<g>
	<path class="st0" d="M31.54,83.49c-3.95-0.16-15.27,5.09-15.27,5.09c-0.46,7.52,1.99,15.4,4.23,20.88
		c6.8,0.39,13.59-6.53,13.59-6.53c8.43,13.02,19.09,3.82,19.09,3.82c14.8,10.98,25.46-3.82,25.46-3.82
		c5.49,8.99,12.74,9.16,18.1,7.55l1.72-6.9C48.2,80.83,35.98,83.66,31.54,83.49z"/>
	<path class="st0" d="M36.16,62.47c-2.93-1.88-15.36-11-18.64-13.41c-1.84-1.94-4.37-3.14-7.17-3.14c-5.62,0-10.18,4.84-10.18,10.82
		c0,4.42,2.49,8.21,6.07,9.89l6.66,8.57L15,75.07v10.04c0,0,11.9-4.39,19.09-5.09c19.47-1.9,64.37,20.09,64.37,20.09v-6.36
		c-36.58-21.77-51.62-23.87-61.59-24.9C37.96,65.15,36.16,62.47,36.16,62.47z M2.86,56.74c0-3.66,2.79-6.62,6.23-6.62
		c3.44,0,6.23,2.96,6.23,6.62c0,3.66-2.79,6.62-6.23,6.62C5.65,63.36,2.86,60.4,2.86,56.74z"/>
	<path class="st0" d="M37.82,59.65l12.89,0.11l0.02,2.3l-10.52-0.59c0,0-0.43,0.77-0.23,4.17c4.22,0.59,8.97,1.84,13.62,3.32
		l9.76,3.53v-0.06c3.53,1.37,6.65,2.69,8.99,3.72l-0.08,0.05l22.37,11.18V73.65H76.5l-0.41-10.18l-12.73-0.71v-2.9L79.56,60v9.26
		h7.98c1.45-20.52,22.55-45.25,22.55-45.25H63.36v-4.24l10.18-3.39L58.27,8.74v7.64v5.09v2.55H17.45
		c-5.69,11.62,1.27,20.37,1.27,20.37L37.82,59.65z"/>
	<path class="st0" d="M96.46,53.29c-3.62-0.33-6.36,16.55-6.36,16.55l8.02-0.05v12.03c-0.1-8.38,21.71-28.53,21.71-28.53H96.46z"/>
</g>
</svg>
