<?xml version="1.0" encoding="utf-8"?>
<!-- Generator: Adobe Illustrator 26.5.0, SVG Export Plug-In . SVG Version: 6.00 Build 0)  -->
<svg version="1.1" id="レイヤー_1" xmlns="http://www.w3.org/2000/svg" xmlns:xlink="http://www.w3.org/1999/xlink" x="0px"
	 y="0px" viewBox="0 0 120 120" style="enable-background:new 0 0 120 120;" xml:space="preserve">
<style type="text/css">
	.st0{fill:#928157;}
</style>
<g>
	<path class="st0" d="M67.77,84.22l16-14l-3.21-2.69c-0.35-0.23-27.79-15.31-39.66-43.55l-0.42-1.42L39,22.54
		c-0.21,0-17.23-0.33-34.29-11.05L0.58,9.05l1.17,5.66C1.87,15.17,13.09,61.16,67.77,84.22z"/>
	<path class="st0" d="M117.67,101.48c-2.51,0.35-26.59-20.61-26.59-20.61c10.78-5.35,2.72-12.55,2.72-12.55l-8,6.89
		c-26.41,17.16-23.8,33.88-4.12,34.52c11.88,0.39,17.46-1.43,19.89-3.75l5.13,4.09C125.89,114.41,117.67,101.48,117.67,101.48z
		 M80.09,98.42c0,0,0.07-3.74,1.96-7.99l14.47,11.52C84.59,109.2,80.09,98.42,80.09,98.42z"/>
	<path class="st0" d="M82.77,63.22l2.52-2.77c24.03-17.66,27.85-44.15,28.1-45.43l0.38-3.79c-20,12-40,13-40,13s-3,14-11,23
		c0.02,0.01,0.04,0.02,0.05,0.04l-1.05,0.96C63.91,51.12,82.77,63.22,82.77,63.22z"/>
	<path class="st0" d="M53.57,83.94c-1.14-0.77-2.36-1.59-3.62-2.46l-8.97-6.52c-1.13-0.88-2.22-1.75-3.23-2.61L37,72.88l-2.06,1.47
		l-6.86-6.47c0,0-8.17,6.68,1.82,12.46C24.93,84.27,5.77,99.21,3.6,98.81c0,0-8.79,12.55,10.57,9.07l4.18-3.03
		c2.15,2.56,7.59,4.8,19.98,4.95c15.3,0.19,20.73-9.79,10.38-22.84L53.57,83.94z M40.42,98.58c0,0-5.08,10.77-16.93,2.54l15.18-11
		C40.53,94.6,40.42,98.58,40.42,98.58z"/>
</g>
</svg>
